<?xml version="1.0" encoding="utf-8"?>
<svg width="16" height="16" fill="#ff0000" class="bi bi-list" viewBox="0 0 16 16" xmlns="http://www.w3.org/2000/svg">
  <path fill-rule="evenodd" d="M 0 13.334 C 0 12.965 0.326 12.667 0.727 12.667 L 15.272 12.667 C 15.832 12.667 16.181 13.223 15.902 13.668 C 15.772 13.874 15.532 14 15.272 14 L 0.727 14 C 0.326 14 0 13.701 0 13.334 Z M 0 8 C 0 7.632 0.326 7.334 0.727 7.334 L 15.272 7.334 C 15.832 7.334 16.181 7.889 15.902 8.333 C 15.772 8.54 15.532 8.666 15.272 8.666 L 0.727 8.666 C 0.326 8.666 0 8.369 0 8 Z M 0 2.666 C 0 2.299 0.326 2 0.727 2 L 15.272 2 C 15.832 2 16.181 2.557 15.902 3 C 15.772 3.206 15.532 3.333 15.272 3.333 L 0.727 3.333 C 0.326 3.333 0 3.036 0 2.666 Z" style="fill: rgb(255, 255, 255);"/>
</svg>