<?xml version="1.0" encoding="utf-8"?>
<svg version="1.0" width="500.000000pt" height="500.000000pt" viewBox="0 0 500.000000 500.000000" preserveAspectRatio="xMidYMid meet" xmlns="http://www.w3.org/2000/svg">
  <g transform="translate(0.000000,500.000000) scale(0.100000,-0.100000)" fill="#000000" stroke="none">
    <path d="M0 2500 l0 -2500 2500 0 2500 0 0 2500 0 2500 -2500 0 -2500 0 0 -2500z m3840 969 c109 -13 243 -58 333 -111 127 -74 278 -242 355 -394 l21 -41 -177 -48 c-97 -27 -182 -50 -189 -52 -7 -3 -16 17 -23 54 -41 209 -103 348 -194 439 -85 85 -147 108 -276 102 -119 -6 -184 -34 -276 -121 -105 -98 -179 -244 -220 -434 l-17 -83 -208 0 -208 0 9 28 c123 404 478 659 935 671 28 0 89 -4 135 -10z m-2785 -367 l143 -322 -226 2 -227 3 -110 252 -110 252 -3 -254 -2 -255 -25 0 -25 0 0 128 c0 132 -15 419 -26 485 l-6 37 237 -2 236 -3 144 -323z m1481 291 c-3 -21 -9 -167 -12 -325 l-7 -288 -198 0 -199 0 -2 263 -3 262 -103 -255 c-57 -140 -107 -259 -112 -263 -4 -5 -19 -7 -32 -5 -24 3 -23 7 98 298 68 162 128 307 133 323 l10 27 217 0 216 0 -6 -37z m-1457 -851 c8 -18 17 -32 21 -32 3 0 14 16 23 35 25 52 37 43 37 -25 0 -33 -4 -60 -10 -60 -5 0 -10 15 -10 33 l-1 32 -15 -27 c-19 -36 -27 -35 -47 5 l-16 32 0 -37 c-1 -21 -5 -38 -11 -38 -6 0 -10 27 -10 61 0 68 15 76 39 21z m326 -19 c25 -55 26 -78 3 -55 -15 15 -64 16 -73 2 -12 -20 -25 -10 -16 13 28 70 42 97 51 97 6 0 22 -25 35 -57z m256 36 c19 -19 19 -22 5 -43 -11 -17 -12 -26 -4 -34 7 -7 8 -15 4 -19 -4 -5 -13 0 -20 10 -16 21 -46 23 -46 2 0 -8 -4 -15 -10 -15 -6 0 -10 27 -10 60 l0 60 30 0 c17 0 39 -9 51 -21z m189 -39 c0 -33 -4 -60 -10 -60 -6 0 -10 27 -10 60 0 33 4 60 10 60 6 0 10 -27 10 -60z m260 40 c24 -24 25 -48 4 -78 -28 -40 -94 -24 -109 25 -4 17 1 29 19 48 30 30 59 32 86 5z m426 5 c18 -15 17 -16 -12 -10 -36 7 -57 -12 -52 -47 3 -20 9 -23 41 -22 38 1 49 -9 21 -20 -40 -15 -77 2 -89 41 -4 17 1 29 19 48 29 29 45 31 72 10z m184 -35 c0 -47 2 -50 25 -50 14 0 25 -4 25 -10 0 -5 -16 -10 -35 -10 l-35 0 0 60 c0 33 4 60 10 60 6 0 10 -22 10 -50z m220 -10 c0 -33 -4 -60 -10 -60 -6 0 -10 27 -10 60 0 33 4 60 10 60 6 0 10 -27 10 -60z m206 25 c16 -40 26 -39 44 5 21 52 40 38 40 -30 0 -33 -4 -60 -10 -60 -5 0 -10 17 -11 38 l0 37 -16 -32 c-20 -40 -28 -41 -47 -5 l-15 27 -1 -32 c0 -23 -5 -33 -15 -33 -11 0 -15 13 -15 53 0 77 21 92 46 32z m324 25 c0 -5 -13 -10 -30 -10 -20 0 -30 -5 -30 -15 0 -10 10 -15 30 -15 17 0 30 -4 30 -10 0 -5 -13 -10 -30 -10 -20 0 -30 -5 -30 -15 0 -10 11 -15 35 -15 19 0 35 -4 35 -10 0 -5 -20 -10 -45 -10 l-45 0 0 60 0 60 40 0 c22 0 40 -4 40 -10z m209 -32 l31 -42 0 42 c0 23 5 42 10 42 6 0 10 -27 10 -60 0 -33 -4 -60 -9 -60 -5 0 -23 17 -40 38 l-30 37 -1 -37 c0 -21 -4 -38 -10 -38 -6 0 -10 27 -10 60 0 33 4 60 9 60 5 0 23 -19 40 -42z m291 32 c0 -5 -7 -10 -15 -10 -11 0 -15 -12 -15 -50 0 -38 -4 -50 -15 -50 -11 0 -15 12 -15 50 0 38 -4 50 -15 50 -8 0 -15 5 -15 10 0 6 20 10 45 10 25 0 45 -4 45 -10z m-3446 -612 c4 -161 10 -321 14 -355 l8 -63 -54 0 -54 0 6 38 c12 71 26 358 26 515 l0 157 24 0 23 0 7 -292z m956 187 c25 -58 47 -105 50 -105 3 0 25 47 49 105 43 103 44 105 76 105 l33 0 -151 -377 -152 -378 -39 0 -39 0 -163 375 c-90 206 -164 376 -164 377 0 2 102 3 228 3 l227 0 45 -105z m1044 -212 c3 -175 9 -335 12 -355 l6 -38 -227 0 -227 0 6 33 c7 35 26 479 26 605 l0 72 199 0 198 0 7 -317z m683 224 c13 -55 43 -134 74 -196 134 -271 388 -394 696 -336 246 46 442 240 553 545 21 58 33 76 49 78 27 4 26 1 -5 -94 -34 -101 -114 -259 -171 -334 -215 -287 -575 -393 -982 -289 -304 77 -543 309 -642 623 -32 104 -49 96 194 96 l212 0 22 -93z" style="fill: rgb(38, 40, 43);"/>
    <path d="M1360 2525 c0 -8 7 -15 15 -15 9 0 12 6 9 15 -4 8 -10 15 -15 15 -5 0 -9 -7 -9 -15z" style="fill: rgba(0, 0, 0, 0);"/>
    <path d="M1600 2535 c0 -22 4 -26 23 -23 14 2 22 10 22 23 0 13 -8 21 -22 23 -19 3 -23 -1 -23 -23z" style="fill: rgba(0, 0, 0, 0);"/>
    <path d="M2040 2546 c-6 -8 -10 -25 -8 -38 4 -30 46 -38 65 -12 17 23 16 29 -3 48 -19 20 -38 20 -54 2z" style="fill: rgba(0, 0, 0, 0);"/>
  </g>
</svg>